<svg xmlns="http://www.w3.org/2000/svg" viewBox="0 0 640 760">
<rect width="640" height="760" fill="#e4dccd"/>
<g opacity="0.5">
<line x1="0" y1="0" x2="640" y2="0" stroke="#8a8273" stroke-width="1" opacity="0.18"/><line x1="0" y1="32" x2="640" y2="32" stroke="#8a8273" stroke-width="1" opacity="0.18"/><line x1="0" y1="64" x2="640" y2="64" stroke="#8a8273" stroke-width="1" opacity="0.18"/><line x1="0" y1="96" x2="640" y2="96" stroke="#8a8273" stroke-width="1" opacity="0.18"/><line x1="0" y1="128" x2="640" y2="128" stroke="#8a8273" stroke-width="1" opacity="0.18"/><line x1="0" y1="160" x2="640" y2="160" stroke="#8a8273" stroke-width="1" opacity="0.18"/><line x1="0" y1="192" x2="640" y2="192" stroke="#8a8273" stroke-width="1" opacity="0.18"/><line x1="0" y1="224" x2="640" y2="224" stroke="#8a8273" stroke-width="1" opacity="0.18"/><line x1="0" y1="256" x2="640" y2="256" stroke="#8a8273" stroke-width="1" opacity="0.18"/><line x1="0" y1="288" x2="640" y2="288" stroke="#8a8273" stroke-width="1" opacity="0.18"/><line x1="0" y1="320" x2="640" y2="320" stroke="#8a8273" stroke-width="1" opacity="0.18"/><line x1="0" y1="352" x2="640" y2="352" stroke="#8a8273" stroke-width="1" opacity="0.18"/><line x1="0" y1="384" x2="640" y2="384" stroke="#8a8273" stroke-width="1" opacity="0.18"/><line x1="0" y1="416" x2="640" y2="416" stroke="#8a8273" stroke-width="1" opacity="0.18"/><line x1="0" y1="448" x2="640" y2="448" stroke="#8a8273" stroke-width="1" opacity="0.18"/><line x1="0" y1="480" x2="640" y2="480" stroke="#8a8273" stroke-width="1" opacity="0.18"/><line x1="0" y1="512" x2="640" y2="512" stroke="#8a8273" stroke-width="1" opacity="0.18"/><line x1="0" y1="544" x2="640" y2="544" stroke="#8a8273" stroke-width="1" opacity="0.18"/><line x1="0" y1="576" x2="640" y2="576" stroke="#8a8273" stroke-width="1" opacity="0.18"/><line x1="0" y1="608" x2="640" y2="608" stroke="#8a8273" stroke-width="1" opacity="0.18"/><line x1="0" y1="640" x2="640" y2="640" stroke="#8a8273" stroke-width="1" opacity="0.18"/><line x1="0" y1="672" x2="640" y2="672" stroke="#8a8273" stroke-width="1" opacity="0.18"/><line x1="0" y1="704" x2="640" y2="704" stroke="#8a8273" stroke-width="1" opacity="0.18"/><line x1="0" y1="736" x2="640" y2="736" stroke="#8a8273" stroke-width="1" opacity="0.18"/>
</g>
<circle cx="320" cy="300" r="120" fill="#1b1a17"/>
<path d="M150 760 C150 590 220 500 320 500 C420 500 490 590 490 760 Z" fill="#1b1a17"/>
<circle cx="470" cy="180" r="34" fill="#d6492f"/>
<text x="320" y="715" text-anchor="middle" font-family="JetBrains Mono, monospace" font-size="18" letter-spacing="3" fill="#efe8db">YOUR PHOTO</text>
</svg>