<svg xmlns="http://www.w3.org/2000/svg" viewBox="0 0 960 600">
<rect width="960" height="600" fill="#efe8db"/>
<g><line x1="0" y1="0" x2="0" y2="600" stroke="#8a8273" stroke-width="1" opacity="0.10"/><line x1="48" y1="0" x2="48" y2="600" stroke="#8a8273" stroke-width="1" opacity="0.10"/><line x1="96" y1="0" x2="96" y2="600" stroke="#8a8273" stroke-width="1" opacity="0.10"/><line x1="144" y1="0" x2="144" y2="600" stroke="#8a8273" stroke-width="1" opacity="0.10"/><line x1="192" y1="0" x2="192" y2="600" stroke="#8a8273" stroke-width="1" opacity="0.10"/><line x1="240" y1="0" x2="240" y2="600" stroke="#8a8273" stroke-width="1" opacity="0.10"/><line x1="288" y1="0" x2="288" y2="600" stroke="#8a8273" stroke-width="1" opacity="0.10"/><line x1="336" y1="0" x2="336" y2="600" stroke="#8a8273" stroke-width="1" opacity="0.10"/><line x1="384" y1="0" x2="384" y2="600" stroke="#8a8273" stroke-width="1" opacity="0.10"/><line x1="432" y1="0" x2="432" y2="600" stroke="#8a8273" stroke-width="1" opacity="0.10"/><line x1="480" y1="0" x2="480" y2="600" stroke="#8a8273" stroke-width="1" opacity="0.10"/><line x1="528" y1="0" x2="528" y2="600" stroke="#8a8273" stroke-width="1" opacity="0.10"/><line x1="576" y1="0" x2="576" y2="600" stroke="#8a8273" stroke-width="1" opacity="0.10"/><line x1="624" y1="0" x2="624" y2="600" stroke="#8a8273" stroke-width="1" opacity="0.10"/><line x1="672" y1="0" x2="672" y2="600" stroke="#8a8273" stroke-width="1" opacity="0.10"/><line x1="720" y1="0" x2="720" y2="600" stroke="#8a8273" stroke-width="1" opacity="0.10"/><line x1="768" y1="0" x2="768" y2="600" stroke="#8a8273" stroke-width="1" opacity="0.10"/><line x1="816" y1="0" x2="816" y2="600" stroke="#8a8273" stroke-width="1" opacity="0.10"/><line x1="864" y1="0" x2="864" y2="600" stroke="#8a8273" stroke-width="1" opacity="0.10"/><line x1="912" y1="0" x2="912" y2="600" stroke="#8a8273" stroke-width="1" opacity="0.10"/></g>
<rect x="-80" y="-40" width="34" height="700" transform="rotate(18 -80 300)" fill="#1b1a17" opacity="0.06"/><rect x="30" y="-40" width="34" height="700" transform="rotate(18 30 300)" fill="#1b1a17" opacity="0.10"/><rect x="140" y="-40" width="34" height="700" transform="rotate(18 140 300)" fill="#1b1a17" opacity="0.14"/><rect x="250" y="-40" width="34" height="700" transform="rotate(18 250 300)" fill="#1b1a17" opacity="0.06"/><rect x="360" y="-40" width="34" height="700" transform="rotate(18 360 300)" fill="#1b1a17" opacity="0.10"/><rect x="470" y="-40" width="34" height="700" transform="rotate(18 470 300)" fill="#1b1a17" opacity="0.14"/><rect x="580" y="-40" width="34" height="700" transform="rotate(18 580 300)" fill="#1b1a17" opacity="0.06"/><rect x="690" y="-40" width="34" height="700" transform="rotate(18 690 300)" fill="#1b1a17" opacity="0.10"/><rect x="800" y="-40" width="34" height="700" transform="rotate(18 800 300)" fill="#1b1a17" opacity="0.14"/><rect x="910" y="-40" width="34" height="700" transform="rotate(18 910 300)" fill="#1b1a17" opacity="0.06"/><rect x="540" y="120" width="40" height="360" transform="rotate(18 560 300)" fill="#d6492f"/>
<text x="48" y="80" font-family="JetBrains Mono, monospace" font-size="22" letter-spacing="5" fill="#8a8273">02</text>
<text x="48" y="540" font-family="JetBrains Mono, monospace" font-size="20" letter-spacing="3" fill="#1b1a17">FINAL RESULT</text>
</svg>