<svg xmlns="http://www.w3.org/2000/svg" viewBox="0 0 960 600">
<defs>
  <radialGradient id="glow" cx="72%" cy="28%" r="60%">
    <stop offset="0%" stop-color="#ff5436" stop-opacity="0.18"/>
    <stop offset="100%" stop-color="#ff5436" stop-opacity="0"/>
  </radialGradient>
</defs>
<rect width="960" height="600" fill="#101015"/>
<rect width="960" height="600" fill="url(#glow)"/>
<g><line x1="0" y1="0" x2="0" y2="600" stroke="#ffffff" stroke-width="1" opacity="0.04"/><line x1="48" y1="0" x2="48" y2="600" stroke="#ffffff" stroke-width="1" opacity="0.04"/><line x1="96" y1="0" x2="96" y2="600" stroke="#ffffff" stroke-width="1" opacity="0.04"/><line x1="144" y1="0" x2="144" y2="600" stroke="#ffffff" stroke-width="1" opacity="0.04"/><line x1="192" y1="0" x2="192" y2="600" stroke="#ffffff" stroke-width="1" opacity="0.04"/><line x1="240" y1="0" x2="240" y2="600" stroke="#ffffff" stroke-width="1" opacity="0.04"/><line x1="288" y1="0" x2="288" y2="600" stroke="#ffffff" stroke-width="1" opacity="0.04"/><line x1="336" y1="0" x2="336" y2="600" stroke="#ffffff" stroke-width="1" opacity="0.04"/><line x1="384" y1="0" x2="384" y2="600" stroke="#ffffff" stroke-width="1" opacity="0.04"/><line x1="432" y1="0" x2="432" y2="600" stroke="#ffffff" stroke-width="1" opacity="0.04"/><line x1="480" y1="0" x2="480" y2="600" stroke="#ffffff" stroke-width="1" opacity="0.04"/><line x1="528" y1="0" x2="528" y2="600" stroke="#ffffff" stroke-width="1" opacity="0.04"/><line x1="576" y1="0" x2="576" y2="600" stroke="#ffffff" stroke-width="1" opacity="0.04"/><line x1="624" y1="0" x2="624" y2="600" stroke="#ffffff" stroke-width="1" opacity="0.04"/><line x1="672" y1="0" x2="672" y2="600" stroke="#ffffff" stroke-width="1" opacity="0.04"/><line x1="720" y1="0" x2="720" y2="600" stroke="#ffffff" stroke-width="1" opacity="0.04"/><line x1="768" y1="0" x2="768" y2="600" stroke="#ffffff" stroke-width="1" opacity="0.04"/><line x1="816" y1="0" x2="816" y2="600" stroke="#ffffff" stroke-width="1" opacity="0.04"/><line x1="864" y1="0" x2="864" y2="600" stroke="#ffffff" stroke-width="1" opacity="0.04"/><line x1="912" y1="0" x2="912" y2="600" stroke="#ffffff" stroke-width="1" opacity="0.04"/><line x1="0" y1="0" x2="960" y2="0" stroke="#ffffff" stroke-width="1" opacity="0.04"/><line x1="0" y1="48" x2="960" y2="48" stroke="#ffffff" stroke-width="1" opacity="0.04"/><line x1="0" y1="96" x2="960" y2="96" stroke="#ffffff" stroke-width="1" opacity="0.04"/><line x1="0" y1="144" x2="960" y2="144" stroke="#ffffff" stroke-width="1" opacity="0.04"/><line x1="0" y1="192" x2="960" y2="192" stroke="#ffffff" stroke-width="1" opacity="0.04"/><line x1="0" y1="240" x2="960" y2="240" stroke="#ffffff" stroke-width="1" opacity="0.04"/><line x1="0" y1="288" x2="960" y2="288" stroke="#ffffff" stroke-width="1" opacity="0.04"/><line x1="0" y1="336" x2="960" y2="336" stroke="#ffffff" stroke-width="1" opacity="0.04"/><line x1="0" y1="384" x2="960" y2="384" stroke="#ffffff" stroke-width="1" opacity="0.04"/><line x1="0" y1="432" x2="960" y2="432" stroke="#ffffff" stroke-width="1" opacity="0.04"/><line x1="0" y1="480" x2="960" y2="480" stroke="#ffffff" stroke-width="1" opacity="0.04"/><line x1="0" y1="528" x2="960" y2="528" stroke="#ffffff" stroke-width="1" opacity="0.04"/><line x1="0" y1="576" x2="960" y2="576" stroke="#ffffff" stroke-width="1" opacity="0.04"/></g>
<line x1="160" y1="150" x2="380" y2="100" stroke="#ffffff" stroke-width="1.2" opacity="0.06"/><line x1="160" y1="150" x2="380" y2="200" stroke="#ffffff" stroke-width="1.2" opacity="0.07"/><line x1="160" y1="150" x2="380" y2="300" stroke="#ffffff" stroke-width="1.2" opacity="0.10"/><line x1="160" y1="150" x2="380" y2="400" stroke="#ffffff" stroke-width="1.2" opacity="0.13"/><line x1="160" y1="150" x2="380" y2="500" stroke="#ffffff" stroke-width="1.2" opacity="0.07"/><line x1="160" y1="300" x2="380" y2="100" stroke="#ffffff" stroke-width="1.2" opacity="0.07"/><line x1="160" y1="300" x2="380" y2="200" stroke="#ffffff" stroke-width="1.2" opacity="0.08"/><line x1="160" y1="300" x2="380" y2="300" stroke="#ffffff" stroke-width="1.2" opacity="0.14"/><line x1="160" y1="300" x2="380" y2="400" stroke="#ffffff" stroke-width="1.2" opacity="0.07"/><line x1="160" y1="300" x2="380" y2="500" stroke="#ffffff" stroke-width="1.2" opacity="0.13"/><line x1="160" y1="450" x2="380" y2="100" stroke="#ffffff" stroke-width="1.2" opacity="0.13"/><line x1="160" y1="450" x2="380" y2="200" stroke="#ffffff" stroke-width="1.2" opacity="0.07"/><line x1="160" y1="450" x2="380" y2="300" stroke="#ffffff" stroke-width="1.2" opacity="0.11"/><line x1="160" y1="450" x2="380" y2="400" stroke="#ffffff" stroke-width="1.2" opacity="0.10"/><line x1="160" y1="450" x2="380" y2="500" stroke="#ffffff" stroke-width="1.2" opacity="0.10"/><line x1="380" y1="100" x2="600" y2="100" stroke="#ffffff" stroke-width="1.2" opacity="0.16"/><line x1="380" y1="100" x2="600" y2="200" stroke="#ffffff" stroke-width="1.2" opacity="0.07"/><line x1="380" y1="100" x2="600" y2="300" stroke="#ffffff" stroke-width="1.2" opacity="0.06"/><line x1="380" y1="100" x2="600" y2="400" stroke="#ffffff" stroke-width="1.2" opacity="0.15"/><line x1="380" y1="100" x2="600" y2="500" stroke="#ffffff" stroke-width="1.2" opacity="0.10"/><line x1="380" y1="200" x2="600" y2="100" stroke="#ffffff" stroke-width="1.2" opacity="0.08"/><line x1="380" y1="200" x2="600" y2="200" stroke="#ffffff" stroke-width="1.2" opacity="0.09"/><line x1="380" y1="200" x2="600" y2="300" stroke="#ffffff" stroke-width="1.2" opacity="0.10"/><line x1="380" y1="200" x2="600" y2="400" stroke="#ffffff" stroke-width="1.2" opacity="0.16"/><line x1="380" y1="200" x2="600" y2="500" stroke="#ffffff" stroke-width="1.2" opacity="0.08"/><line x1="380" y1="300" x2="600" y2="100" stroke="#ffffff" stroke-width="1.2" opacity="0.08"/><line x1="380" y1="300" x2="600" y2="200" stroke="#ffffff" stroke-width="1.2" opacity="0.12"/><line x1="380" y1="300" x2="600" y2="300" stroke="#ffffff" stroke-width="1.2" opacity="0.11"/><line x1="380" y1="300" x2="600" y2="400" stroke="#ffffff" stroke-width="1.2" opacity="0.16"/><line x1="380" y1="300" x2="600" y2="500" stroke="#ffffff" stroke-width="1.2" opacity="0.14"/><line x1="380" y1="400" x2="600" y2="100" stroke="#ffffff" stroke-width="1.2" opacity="0.10"/><line x1="380" y1="400" x2="600" y2="200" stroke="#ffffff" stroke-width="1.2" opacity="0.08"/><line x1="380" y1="400" x2="600" y2="300" stroke="#ffffff" stroke-width="1.2" opacity="0.14"/><line x1="380" y1="400" x2="600" y2="400" stroke="#ffffff" stroke-width="1.2" opacity="0.16"/><line x1="380" y1="400" x2="600" y2="500" stroke="#ffffff" stroke-width="1.2" opacity="0.06"/><line x1="380" y1="500" x2="600" y2="100" stroke="#ffffff" stroke-width="1.2" opacity="0.13"/><line x1="380" y1="500" x2="600" y2="200" stroke="#ffffff" stroke-width="1.2" opacity="0.15"/><line x1="380" y1="500" x2="600" y2="300" stroke="#ffffff" stroke-width="1.2" opacity="0.13"/><line x1="380" y1="500" x2="600" y2="400" stroke="#ffffff" stroke-width="1.2" opacity="0.08"/><line x1="380" y1="500" x2="600" y2="500" stroke="#ffffff" stroke-width="1.2" opacity="0.14"/><line x1="600" y1="100" x2="820" y2="150" stroke="#ffffff" stroke-width="1.2" opacity="0.13"/><line x1="600" y1="100" x2="820" y2="300" stroke="#ffffff" stroke-width="1.2" opacity="0.08"/><line x1="600" y1="100" x2="820" y2="450" stroke="#ffffff" stroke-width="1.2" opacity="0.12"/><line x1="600" y1="200" x2="820" y2="150" stroke="#ffffff" stroke-width="1.2" opacity="0.08"/><line x1="600" y1="200" x2="820" y2="300" stroke="#ffffff" stroke-width="1.2" opacity="0.06"/><line x1="600" y1="200" x2="820" y2="450" stroke="#ffffff" stroke-width="1.2" opacity="0.09"/><line x1="600" y1="300" x2="820" y2="150" stroke="#ffffff" stroke-width="1.2" opacity="0.09"/><line x1="600" y1="300" x2="820" y2="300" stroke="#ffffff" stroke-width="1.2" opacity="0.10"/><line x1="600" y1="300" x2="820" y2="450" stroke="#ffffff" stroke-width="1.2" opacity="0.12"/><line x1="600" y1="400" x2="820" y2="150" stroke="#ffffff" stroke-width="1.2" opacity="0.14"/><line x1="600" y1="400" x2="820" y2="300" stroke="#ffffff" stroke-width="1.2" opacity="0.16"/><line x1="600" y1="400" x2="820" y2="450" stroke="#ffffff" stroke-width="1.2" opacity="0.16"/><line x1="600" y1="500" x2="820" y2="150" stroke="#ffffff" stroke-width="1.2" opacity="0.16"/><line x1="600" y1="500" x2="820" y2="300" stroke="#ffffff" stroke-width="1.2" opacity="0.14"/><line x1="600" y1="500" x2="820" y2="450" stroke="#ffffff" stroke-width="1.2" opacity="0.09"/><circle cx="160" cy="150" r="17" fill="#ff5436" opacity="0.18"/><circle cx="160" cy="150" r="9" fill="#ff5436" opacity="0.95"/><circle cx="160" cy="300" r="6" fill="#f2efe7" opacity="0.85"/><circle cx="160" cy="450" r="6" fill="#f2efe7" opacity="0.85"/><circle cx="380" cy="100" r="17" fill="#ff5436" opacity="0.18"/><circle cx="380" cy="100" r="9" fill="#ff5436" opacity="0.95"/><circle cx="380" cy="200" r="6" fill="#f2efe7" opacity="0.85"/><circle cx="380" cy="300" r="6" fill="#f2efe7" opacity="0.85"/><circle cx="380" cy="400" r="6" fill="#f2efe7" opacity="0.85"/><circle cx="380" cy="500" r="17" fill="#ff5436" opacity="0.18"/><circle cx="380" cy="500" r="9" fill="#ff5436" opacity="0.95"/><circle cx="600" cy="100" r="6" fill="#f2efe7" opacity="0.85"/><circle cx="600" cy="200" r="6" fill="#f2efe7" opacity="0.85"/><circle cx="600" cy="300" r="17" fill="#ff5436" opacity="0.18"/><circle cx="600" cy="300" r="9" fill="#ff5436" opacity="0.95"/><circle cx="600" cy="400" r="6" fill="#f2efe7" opacity="0.85"/><circle cx="600" cy="500" r="6" fill="#f2efe7" opacity="0.85"/><circle cx="820" cy="150" r="6" fill="#f2efe7" opacity="0.85"/><circle cx="820" cy="300" r="17" fill="#ff5436" opacity="0.18"/><circle cx="820" cy="300" r="9" fill="#ff5436" opacity="0.95"/><circle cx="820" cy="450" r="6" fill="#f2efe7" opacity="0.85"/><text x="40" y="74" font-family="JetBrains Mono, monospace" font-size="20" letter-spacing="5" fill="#8a8578">FIG.</text><text x="40" y="548" font-family="JetBrains Mono, monospace" font-size="19" letter-spacing="3" fill="#f2efe7">MODEL ARCHITECTURE</text>
</svg>