<svg xmlns="http://www.w3.org/2000/svg" viewBox="0 0 960 600">
<rect width="960" height="600" fill="#efe8db"/>
<g><line x1="0" y1="0" x2="0" y2="600" stroke="#8a8273" stroke-width="1" opacity="0.10"/><line x1="48" y1="0" x2="48" y2="600" stroke="#8a8273" stroke-width="1" opacity="0.10"/><line x1="96" y1="0" x2="96" y2="600" stroke="#8a8273" stroke-width="1" opacity="0.10"/><line x1="144" y1="0" x2="144" y2="600" stroke="#8a8273" stroke-width="1" opacity="0.10"/><line x1="192" y1="0" x2="192" y2="600" stroke="#8a8273" stroke-width="1" opacity="0.10"/><line x1="240" y1="0" x2="240" y2="600" stroke="#8a8273" stroke-width="1" opacity="0.10"/><line x1="288" y1="0" x2="288" y2="600" stroke="#8a8273" stroke-width="1" opacity="0.10"/><line x1="336" y1="0" x2="336" y2="600" stroke="#8a8273" stroke-width="1" opacity="0.10"/><line x1="384" y1="0" x2="384" y2="600" stroke="#8a8273" stroke-width="1" opacity="0.10"/><line x1="432" y1="0" x2="432" y2="600" stroke="#8a8273" stroke-width="1" opacity="0.10"/><line x1="480" y1="0" x2="480" y2="600" stroke="#8a8273" stroke-width="1" opacity="0.10"/><line x1="528" y1="0" x2="528" y2="600" stroke="#8a8273" stroke-width="1" opacity="0.10"/><line x1="576" y1="0" x2="576" y2="600" stroke="#8a8273" stroke-width="1" opacity="0.10"/><line x1="624" y1="0" x2="624" y2="600" stroke="#8a8273" stroke-width="1" opacity="0.10"/><line x1="672" y1="0" x2="672" y2="600" stroke="#8a8273" stroke-width="1" opacity="0.10"/><line x1="720" y1="0" x2="720" y2="600" stroke="#8a8273" stroke-width="1" opacity="0.10"/><line x1="768" y1="0" x2="768" y2="600" stroke="#8a8273" stroke-width="1" opacity="0.10"/><line x1="816" y1="0" x2="816" y2="600" stroke="#8a8273" stroke-width="1" opacity="0.10"/><line x1="864" y1="0" x2="864" y2="600" stroke="#8a8273" stroke-width="1" opacity="0.10"/><line x1="912" y1="0" x2="912" y2="600" stroke="#8a8273" stroke-width="1" opacity="0.10"/></g>
<circle cx="780" cy="120" r="90" fill="none" stroke="#1b1a17" stroke-width="2" opacity="0.10"/><circle cx="780" cy="120" r="160" fill="none" stroke="#1b1a17" stroke-width="2" opacity="0.12"/><circle cx="780" cy="120" r="230" fill="none" stroke="#1b1a17" stroke-width="2" opacity="0.13"/><circle cx="780" cy="120" r="300" fill="none" stroke="#1b1a17" stroke-width="2" opacity="0.15"/><circle cx="780" cy="120" r="370" fill="none" stroke="#1b1a17" stroke-width="2" opacity="0.16"/><circle cx="780" cy="120" r="440" fill="none" stroke="#1b1a17" stroke-width="2" opacity="0.17"/><circle cx="780" cy="120" r="510" fill="none" stroke="#1b1a17" stroke-width="2" opacity="0.19"/><circle cx="780" cy="120" r="46" fill="#d6492f"/>
<text x="48" y="80" font-family="JetBrains Mono, monospace" font-size="22" letter-spacing="5" fill="#8a8273">01</text>
<text x="48" y="540" font-family="JetBrains Mono, monospace" font-size="20" letter-spacing="3" fill="#1b1a17">PROJECT COVER — REPLACE</text>
</svg>