<svg xmlns="http://www.w3.org/2000/svg" viewBox="0 0 960 600">
<defs>
  <radialGradient id="glow" cx="72%" cy="28%" r="60%">
    <stop offset="0%" stop-color="#ff5436" stop-opacity="0.18"/>
    <stop offset="100%" stop-color="#ff5436" stop-opacity="0"/>
  </radialGradient>
</defs>
<rect width="960" height="600" fill="#101015"/>
<rect width="960" height="600" fill="url(#glow)"/>
<g><line x1="0" y1="0" x2="0" y2="600" stroke="#ffffff" stroke-width="1" opacity="0.04"/><line x1="48" y1="0" x2="48" y2="600" stroke="#ffffff" stroke-width="1" opacity="0.04"/><line x1="96" y1="0" x2="96" y2="600" stroke="#ffffff" stroke-width="1" opacity="0.04"/><line x1="144" y1="0" x2="144" y2="600" stroke="#ffffff" stroke-width="1" opacity="0.04"/><line x1="192" y1="0" x2="192" y2="600" stroke="#ffffff" stroke-width="1" opacity="0.04"/><line x1="240" y1="0" x2="240" y2="600" stroke="#ffffff" stroke-width="1" opacity="0.04"/><line x1="288" y1="0" x2="288" y2="600" stroke="#ffffff" stroke-width="1" opacity="0.04"/><line x1="336" y1="0" x2="336" y2="600" stroke="#ffffff" stroke-width="1" opacity="0.04"/><line x1="384" y1="0" x2="384" y2="600" stroke="#ffffff" stroke-width="1" opacity="0.04"/><line x1="432" y1="0" x2="432" y2="600" stroke="#ffffff" stroke-width="1" opacity="0.04"/><line x1="480" y1="0" x2="480" y2="600" stroke="#ffffff" stroke-width="1" opacity="0.04"/><line x1="528" y1="0" x2="528" y2="600" stroke="#ffffff" stroke-width="1" opacity="0.04"/><line x1="576" y1="0" x2="576" y2="600" stroke="#ffffff" stroke-width="1" opacity="0.04"/><line x1="624" y1="0" x2="624" y2="600" stroke="#ffffff" stroke-width="1" opacity="0.04"/><line x1="672" y1="0" x2="672" y2="600" stroke="#ffffff" stroke-width="1" opacity="0.04"/><line x1="720" y1="0" x2="720" y2="600" stroke="#ffffff" stroke-width="1" opacity="0.04"/><line x1="768" y1="0" x2="768" y2="600" stroke="#ffffff" stroke-width="1" opacity="0.04"/><line x1="816" y1="0" x2="816" y2="600" stroke="#ffffff" stroke-width="1" opacity="0.04"/><line x1="864" y1="0" x2="864" y2="600" stroke="#ffffff" stroke-width="1" opacity="0.04"/><line x1="912" y1="0" x2="912" y2="600" stroke="#ffffff" stroke-width="1" opacity="0.04"/><line x1="0" y1="0" x2="960" y2="0" stroke="#ffffff" stroke-width="1" opacity="0.04"/><line x1="0" y1="48" x2="960" y2="48" stroke="#ffffff" stroke-width="1" opacity="0.04"/><line x1="0" y1="96" x2="960" y2="96" stroke="#ffffff" stroke-width="1" opacity="0.04"/><line x1="0" y1="144" x2="960" y2="144" stroke="#ffffff" stroke-width="1" opacity="0.04"/><line x1="0" y1="192" x2="960" y2="192" stroke="#ffffff" stroke-width="1" opacity="0.04"/><line x1="0" y1="240" x2="960" y2="240" stroke="#ffffff" stroke-width="1" opacity="0.04"/><line x1="0" y1="288" x2="960" y2="288" stroke="#ffffff" stroke-width="1" opacity="0.04"/><line x1="0" y1="336" x2="960" y2="336" stroke="#ffffff" stroke-width="1" opacity="0.04"/><line x1="0" y1="384" x2="960" y2="384" stroke="#ffffff" stroke-width="1" opacity="0.04"/><line x1="0" y1="432" x2="960" y2="432" stroke="#ffffff" stroke-width="1" opacity="0.04"/><line x1="0" y1="480" x2="960" y2="480" stroke="#ffffff" stroke-width="1" opacity="0.04"/><line x1="0" y1="528" x2="960" y2="528" stroke="#ffffff" stroke-width="1" opacity="0.04"/><line x1="0" y1="576" x2="960" y2="576" stroke="#ffffff" stroke-width="1" opacity="0.04"/></g>
<circle cx="660" cy="300" r="70" fill="none" stroke="#ffffff" stroke-width="1.3" opacity="0.16"/><circle cx="660" cy="300" r="140" fill="none" stroke="#ffffff" stroke-width="1.3" opacity="0.14"/><circle cx="660" cy="300" r="210" fill="none" stroke="#ffffff" stroke-width="1.3" opacity="0.12"/><circle cx="660" cy="300" r="280" fill="none" stroke="#ffffff" stroke-width="1.3" opacity="0.10"/><circle cx="660" cy="300" r="34" fill="#ff5436" opacity="0.22"/><circle cx="660" cy="300" r="16" fill="#ff5436"/><line x1="660" y1="300" x2="803" y2="541" stroke="#ffffff" stroke-width="1" opacity="0.08"/><circle cx="803" cy="541" r="8" fill="#ff5436" opacity="0.9"/><line x1="660" y1="300" x2="475" y2="90" stroke="#ffffff" stroke-width="1" opacity="0.08"/><circle cx="475" cy="90" r="5" fill="#f2efe7" opacity="0.9"/><line x1="660" y1="300" x2="815" y2="67" stroke="#ffffff" stroke-width="1" opacity="0.08"/><circle cx="815" cy="67" r="5" fill="#f2efe7" opacity="0.9"/><line x1="660" y1="300" x2="710" y2="169" stroke="#ffffff" stroke-width="1" opacity="0.08"/><circle cx="710" cy="169" r="5" fill="#f2efe7" opacity="0.9"/><line x1="660" y1="300" x2="520" y2="296" stroke="#ffffff" stroke-width="1" opacity="0.08"/><circle cx="520" cy="296" r="8" fill="#ff5436" opacity="0.9"/><line x1="660" y1="300" x2="677" y2="232" stroke="#ffffff" stroke-width="1" opacity="0.08"/><circle cx="677" cy="232" r="5" fill="#f2efe7" opacity="0.9"/><line x1="660" y1="300" x2="467" y2="503" stroke="#ffffff" stroke-width="1" opacity="0.08"/><circle cx="467" cy="503" r="5" fill="#f2efe7" opacity="0.9"/><line x1="660" y1="300" x2="787" y2="359" stroke="#ffffff" stroke-width="1" opacity="0.08"/><circle cx="787" cy="359" r="5" fill="#f2efe7" opacity="0.9"/><line x1="660" y1="300" x2="722" y2="267" stroke="#ffffff" stroke-width="1" opacity="0.08"/><circle cx="722" cy="267" r="8" fill="#ff5436" opacity="0.9"/><line x1="660" y1="300" x2="402" y2="408" stroke="#ffffff" stroke-width="1" opacity="0.08"/><circle cx="402" cy="408" r="5" fill="#f2efe7" opacity="0.9"/><line x1="660" y1="300" x2="608" y2="253" stroke="#ffffff" stroke-width="1" opacity="0.08"/><circle cx="608" cy="253" r="5" fill="#f2efe7" opacity="0.9"/><line x1="660" y1="300" x2="930" y2="225" stroke="#ffffff" stroke-width="1" opacity="0.08"/><circle cx="930" cy="225" r="5" fill="#f2efe7" opacity="0.9"/><text x="40" y="74" font-family="JetBrains Mono, monospace" font-size="20" letter-spacing="5" fill="#8a8578">FIG.</text><text x="40" y="548" font-family="JetBrains Mono, monospace" font-size="19" letter-spacing="3" fill="#f2efe7">PERSONALIZATION ENGINE</text>
</svg>