<svg xmlns="http://www.w3.org/2000/svg" viewBox="0 0 960 600">
<defs>
  <radialGradient id="glow" cx="72%" cy="28%" r="60%">
    <stop offset="0%" stop-color="#ff5436" stop-opacity="0.18"/>
    <stop offset="100%" stop-color="#ff5436" stop-opacity="0"/>
  </radialGradient>
</defs>
<rect width="960" height="600" fill="#101015"/>
<rect width="960" height="600" fill="url(#glow)"/>
<g><line x1="0" y1="0" x2="0" y2="600" stroke="#ffffff" stroke-width="1" opacity="0.04"/><line x1="48" y1="0" x2="48" y2="600" stroke="#ffffff" stroke-width="1" opacity="0.04"/><line x1="96" y1="0" x2="96" y2="600" stroke="#ffffff" stroke-width="1" opacity="0.04"/><line x1="144" y1="0" x2="144" y2="600" stroke="#ffffff" stroke-width="1" opacity="0.04"/><line x1="192" y1="0" x2="192" y2="600" stroke="#ffffff" stroke-width="1" opacity="0.04"/><line x1="240" y1="0" x2="240" y2="600" stroke="#ffffff" stroke-width="1" opacity="0.04"/><line x1="288" y1="0" x2="288" y2="600" stroke="#ffffff" stroke-width="1" opacity="0.04"/><line x1="336" y1="0" x2="336" y2="600" stroke="#ffffff" stroke-width="1" opacity="0.04"/><line x1="384" y1="0" x2="384" y2="600" stroke="#ffffff" stroke-width="1" opacity="0.04"/><line x1="432" y1="0" x2="432" y2="600" stroke="#ffffff" stroke-width="1" opacity="0.04"/><line x1="480" y1="0" x2="480" y2="600" stroke="#ffffff" stroke-width="1" opacity="0.04"/><line x1="528" y1="0" x2="528" y2="600" stroke="#ffffff" stroke-width="1" opacity="0.04"/><line x1="576" y1="0" x2="576" y2="600" stroke="#ffffff" stroke-width="1" opacity="0.04"/><line x1="624" y1="0" x2="624" y2="600" stroke="#ffffff" stroke-width="1" opacity="0.04"/><line x1="672" y1="0" x2="672" y2="600" stroke="#ffffff" stroke-width="1" opacity="0.04"/><line x1="720" y1="0" x2="720" y2="600" stroke="#ffffff" stroke-width="1" opacity="0.04"/><line x1="768" y1="0" x2="768" y2="600" stroke="#ffffff" stroke-width="1" opacity="0.04"/><line x1="816" y1="0" x2="816" y2="600" stroke="#ffffff" stroke-width="1" opacity="0.04"/><line x1="864" y1="0" x2="864" y2="600" stroke="#ffffff" stroke-width="1" opacity="0.04"/><line x1="912" y1="0" x2="912" y2="600" stroke="#ffffff" stroke-width="1" opacity="0.04"/><line x1="0" y1="0" x2="960" y2="0" stroke="#ffffff" stroke-width="1" opacity="0.04"/><line x1="0" y1="48" x2="960" y2="48" stroke="#ffffff" stroke-width="1" opacity="0.04"/><line x1="0" y1="96" x2="960" y2="96" stroke="#ffffff" stroke-width="1" opacity="0.04"/><line x1="0" y1="144" x2="960" y2="144" stroke="#ffffff" stroke-width="1" opacity="0.04"/><line x1="0" y1="192" x2="960" y2="192" stroke="#ffffff" stroke-width="1" opacity="0.04"/><line x1="0" y1="240" x2="960" y2="240" stroke="#ffffff" stroke-width="1" opacity="0.04"/><line x1="0" y1="288" x2="960" y2="288" stroke="#ffffff" stroke-width="1" opacity="0.04"/><line x1="0" y1="336" x2="960" y2="336" stroke="#ffffff" stroke-width="1" opacity="0.04"/><line x1="0" y1="384" x2="960" y2="384" stroke="#ffffff" stroke-width="1" opacity="0.04"/><line x1="0" y1="432" x2="960" y2="432" stroke="#ffffff" stroke-width="1" opacity="0.04"/><line x1="0" y1="480" x2="960" y2="480" stroke="#ffffff" stroke-width="1" opacity="0.04"/><line x1="0" y1="528" x2="960" y2="528" stroke="#ffffff" stroke-width="1" opacity="0.04"/><line x1="0" y1="576" x2="960" y2="576" stroke="#ffffff" stroke-width="1" opacity="0.04"/></g>
<polyline points="0,360 12,361 24,363 36,367 48,372 60,378 72,384 84,391 96,397 108,402 120,406 132,409 144,409 156,407 168,403 180,397 192,388 204,377 216,364 228,350 240,336 252,320 264,306 276,291 288,279 300,268 312,260 324,255 336,252 348,254 360,258 372,266 384,278 396,292 408,308 420,327 432,347 444,367 456,387 468,407 480,425 492,441 504,455 516,465 528,472 540,476 552,476 564,472 576,465 588,455 600,442 612,427 624,411 636,394 648,377 660,360 672,344 684,329 696,316 708,306 720,299 732,294 744,291 756,291 768,294 780,299 792,305 804,313 816,321 828,330 840,338 852,346 864,353 876,359 888,363 900,365 912,365 924,364 936,362 948,358 960,354" fill="none" stroke="#ff5436" stroke-width="2.5" opacity="0.5"/><polyline points="0,425 12,429 24,430 36,430 48,427 60,422 72,415 84,406 96,395 108,383 120,370 132,357 144,343 156,330 168,318 180,307 192,297 204,290 216,285 228,282 240,282 252,284 264,289 276,295 288,303 300,313 312,324 324,336 336,348 348,359 360,370 372,380 384,389 396,397 408,402 420,406 432,408 444,408 456,407 468,404 480,399 492,394 504,388 516,382 528,376 540,371 552,366 564,361 576,358 588,356 600,355 612,355 624,357 636,359 648,361 660,365 672,368 684,371 696,374 708,376 720,377 732,377 744,376 756,373 768,369 780,364 792,358 804,351 816,343 828,335 840,327 852,320 864,313 876,307 888,302 900,299 912,299 924,300 936,303 948,308 960,315" fill="none" stroke="#f2efe7" stroke-width="1.6" opacity="0.22"/><polyline points="0,435 12,412 24,388 36,364 48,341 60,320 72,301 84,286 96,274 108,265 120,260 132,259 144,262 156,267 168,276 180,286 192,298 204,310 216,323 228,335 240,347 252,356 264,364 276,369 288,372 300,373 312,371 324,368 336,363 348,357 360,351 372,344 384,339 396,334 408,331 420,330 432,331 444,335 456,342 468,351 480,362 492,375 504,390 516,405 528,421 540,436 552,450 564,462 576,471 588,477 600,479 612,478 624,472 636,462 648,449 660,431 672,411 684,388 696,363 708,338 720,312 732,287 744,264 756,244 768,226 780,213 792,204 804,200 816,201 828,207 840,217 852,232 864,251 876,272 888,296 900,322 912,348 924,374 936,398 948,421 960,441" fill="none" stroke="#f2efe7" stroke-width="1.6" opacity="0.14"/><circle cx="80" cy="389" r="6" fill="#ff5436"/><circle cx="230" cy="348" r="6" fill="#ff5436"/><circle cx="380" cy="274" r="6" fill="#ff5436"/><circle cx="530" cy="473" r="6" fill="#ff5436"/><circle cx="680" cy="334" r="6" fill="#ff5436"/><circle cx="830" cy="331" r="6" fill="#ff5436"/><text x="40" y="74" font-family="JetBrains Mono, monospace" font-size="20" letter-spacing="5" fill="#8a8578">FIG.</text><text x="40" y="548" font-family="JetBrains Mono, monospace" font-size="19" letter-spacing="3" fill="#f2efe7">RESULTS</text>
</svg>