<svg xmlns="http://www.w3.org/2000/svg" viewBox="0 0 960 600">
<defs>
  <radialGradient id="glow" cx="72%" cy="28%" r="60%">
    <stop offset="0%" stop-color="#ff5436" stop-opacity="0.18"/>
    <stop offset="100%" stop-color="#ff5436" stop-opacity="0"/>
  </radialGradient>
</defs>
<rect width="960" height="600" fill="#101015"/>
<rect width="960" height="600" fill="url(#glow)"/>
<g><line x1="0" y1="0" x2="0" y2="600" stroke="#ffffff" stroke-width="1" opacity="0.04"/><line x1="48" y1="0" x2="48" y2="600" stroke="#ffffff" stroke-width="1" opacity="0.04"/><line x1="96" y1="0" x2="96" y2="600" stroke="#ffffff" stroke-width="1" opacity="0.04"/><line x1="144" y1="0" x2="144" y2="600" stroke="#ffffff" stroke-width="1" opacity="0.04"/><line x1="192" y1="0" x2="192" y2="600" stroke="#ffffff" stroke-width="1" opacity="0.04"/><line x1="240" y1="0" x2="240" y2="600" stroke="#ffffff" stroke-width="1" opacity="0.04"/><line x1="288" y1="0" x2="288" y2="600" stroke="#ffffff" stroke-width="1" opacity="0.04"/><line x1="336" y1="0" x2="336" y2="600" stroke="#ffffff" stroke-width="1" opacity="0.04"/><line x1="384" y1="0" x2="384" y2="600" stroke="#ffffff" stroke-width="1" opacity="0.04"/><line x1="432" y1="0" x2="432" y2="600" stroke="#ffffff" stroke-width="1" opacity="0.04"/><line x1="480" y1="0" x2="480" y2="600" stroke="#ffffff" stroke-width="1" opacity="0.04"/><line x1="528" y1="0" x2="528" y2="600" stroke="#ffffff" stroke-width="1" opacity="0.04"/><line x1="576" y1="0" x2="576" y2="600" stroke="#ffffff" stroke-width="1" opacity="0.04"/><line x1="624" y1="0" x2="624" y2="600" stroke="#ffffff" stroke-width="1" opacity="0.04"/><line x1="672" y1="0" x2="672" y2="600" stroke="#ffffff" stroke-width="1" opacity="0.04"/><line x1="720" y1="0" x2="720" y2="600" stroke="#ffffff" stroke-width="1" opacity="0.04"/><line x1="768" y1="0" x2="768" y2="600" stroke="#ffffff" stroke-width="1" opacity="0.04"/><line x1="816" y1="0" x2="816" y2="600" stroke="#ffffff" stroke-width="1" opacity="0.04"/><line x1="864" y1="0" x2="864" y2="600" stroke="#ffffff" stroke-width="1" opacity="0.04"/><line x1="912" y1="0" x2="912" y2="600" stroke="#ffffff" stroke-width="1" opacity="0.04"/><line x1="0" y1="0" x2="960" y2="0" stroke="#ffffff" stroke-width="1" opacity="0.04"/><line x1="0" y1="48" x2="960" y2="48" stroke="#ffffff" stroke-width="1" opacity="0.04"/><line x1="0" y1="96" x2="960" y2="96" stroke="#ffffff" stroke-width="1" opacity="0.04"/><line x1="0" y1="144" x2="960" y2="144" stroke="#ffffff" stroke-width="1" opacity="0.04"/><line x1="0" y1="192" x2="960" y2="192" stroke="#ffffff" stroke-width="1" opacity="0.04"/><line x1="0" y1="240" x2="960" y2="240" stroke="#ffffff" stroke-width="1" opacity="0.04"/><line x1="0" y1="288" x2="960" y2="288" stroke="#ffffff" stroke-width="1" opacity="0.04"/><line x1="0" y1="336" x2="960" y2="336" stroke="#ffffff" stroke-width="1" opacity="0.04"/><line x1="0" y1="384" x2="960" y2="384" stroke="#ffffff" stroke-width="1" opacity="0.04"/><line x1="0" y1="432" x2="960" y2="432" stroke="#ffffff" stroke-width="1" opacity="0.04"/><line x1="0" y1="480" x2="960" y2="480" stroke="#ffffff" stroke-width="1" opacity="0.04"/><line x1="0" y1="528" x2="960" y2="528" stroke="#ffffff" stroke-width="1" opacity="0.04"/><line x1="0" y1="576" x2="960" y2="576" stroke="#ffffff" stroke-width="1" opacity="0.04"/></g>
<circle cx="660" cy="300" r="70" fill="none" stroke="#ffffff" stroke-width="1.3" opacity="0.16"/><circle cx="660" cy="300" r="140" fill="none" stroke="#ffffff" stroke-width="1.3" opacity="0.14"/><circle cx="660" cy="300" r="210" fill="none" stroke="#ffffff" stroke-width="1.3" opacity="0.12"/><circle cx="660" cy="300" r="280" fill="none" stroke="#ffffff" stroke-width="1.3" opacity="0.10"/><circle cx="660" cy="300" r="34" fill="#ff5436" opacity="0.22"/><circle cx="660" cy="300" r="16" fill="#ff5436"/><line x1="660" y1="300" x2="597" y2="425" stroke="#ffffff" stroke-width="1" opacity="0.08"/><circle cx="597" cy="425" r="8" fill="#ff5436" opacity="0.9"/><line x1="660" y1="300" x2="605" y2="343" stroke="#ffffff" stroke-width="1" opacity="0.08"/><circle cx="605" cy="343" r="5" fill="#f2efe7" opacity="0.9"/><line x1="660" y1="300" x2="723" y2="331" stroke="#ffffff" stroke-width="1" opacity="0.08"/><circle cx="723" cy="331" r="5" fill="#f2efe7" opacity="0.9"/><line x1="660" y1="300" x2="613" y2="352" stroke="#ffffff" stroke-width="1" opacity="0.08"/><circle cx="613" cy="352" r="5" fill="#f2efe7" opacity="0.9"/><line x1="660" y1="300" x2="778" y2="225" stroke="#ffffff" stroke-width="1" opacity="0.08"/><circle cx="778" cy="225" r="8" fill="#ff5436" opacity="0.9"/><line x1="660" y1="300" x2="932" y2="365" stroke="#ffffff" stroke-width="1" opacity="0.08"/><circle cx="932" cy="365" r="5" fill="#f2efe7" opacity="0.9"/><line x1="660" y1="300" x2="538" y2="369" stroke="#ffffff" stroke-width="1" opacity="0.08"/><circle cx="538" cy="369" r="5" fill="#f2efe7" opacity="0.9"/><line x1="660" y1="300" x2="896" y2="451" stroke="#ffffff" stroke-width="1" opacity="0.08"/><circle cx="896" cy="451" r="5" fill="#f2efe7" opacity="0.9"/><line x1="660" y1="300" x2="725" y2="325" stroke="#ffffff" stroke-width="1" opacity="0.08"/><circle cx="725" cy="325" r="8" fill="#ff5436" opacity="0.9"/><line x1="660" y1="300" x2="726" y2="277" stroke="#ffffff" stroke-width="1" opacity="0.08"/><circle cx="726" cy="277" r="5" fill="#f2efe7" opacity="0.9"/><line x1="660" y1="300" x2="412" y2="170" stroke="#ffffff" stroke-width="1" opacity="0.08"/><circle cx="412" cy="170" r="5" fill="#f2efe7" opacity="0.9"/><line x1="660" y1="300" x2="793" y2="343" stroke="#ffffff" stroke-width="1" opacity="0.08"/><circle cx="793" cy="343" r="5" fill="#f2efe7" opacity="0.9"/><text x="40" y="74" font-family="JetBrains Mono, monospace" font-size="20" letter-spacing="5" fill="#8a8578">FIG.</text><text x="40" y="548" font-family="JetBrains Mono, monospace" font-size="19" letter-spacing="3" fill="#f2efe7">NEORONS — REPLACE WITH SCREENSHOT</text>
</svg>